<svg xmlns="http://www.w3.org/2000/svg" width="240" height="240" viewBox="0 0 240 240">
  <circle cx="18" cy="24" r="1.1" fill="white" opacity="0.9"/>
  <circle cx="52" cy="66" r="0.7" fill="white" opacity="0.5"/>
  <circle cx="97" cy="18" r="1.3" fill="white" opacity="0.8"/>
  <circle cx="140" cy="47" r="0.6" fill="white" opacity="0.4"/>
  <circle cx="178" cy="12" r="1" fill="white" opacity="0.7"/>
  <circle cx="210" cy="58" r="0.8" fill="white" opacity="0.6"/>
  <circle cx="20" cy="100" r="0.9" fill="white" opacity="0.6"/>
  <circle cx="65" cy="120" r="1.2" fill="white" opacity="0.85"/>
  <circle cx="112" cy="95" r="0.6" fill="white" opacity="0.4"/>
  <circle cx="155" cy="110" r="1" fill="white" opacity="0.7"/>
  <circle cx="200" cy="130" r="0.7" fill="white" opacity="0.5"/>
  <circle cx="230" cy="90" r="1.1" fill="white" opacity="0.8"/>
  <circle cx="10" cy="160" r="1" fill="white" opacity="0.7"/>
  <circle cx="45" cy="190" r="0.7" fill="white" opacity="0.5"/>
  <circle cx="85" cy="165" r="1.3" fill="white" opacity="0.9"/>
  <circle cx="125" cy="205" r="0.6" fill="white" opacity="0.4"/>
  <circle cx="165" cy="175" r="0.9" fill="white" opacity="0.6"/>
  <circle cx="205" cy="200" r="1.1" fill="white" opacity="0.8"/>
  <circle cx="235" cy="225" r="0.7" fill="white" opacity="0.5"/>
  <circle cx="30" cy="225" r="0.8" fill="white" opacity="0.6"/>
</svg>
